<svg xmlns="http://www.w3.org/2000/svg" fill="none" viewBox="0 0 256 256"><path fill="#000" fill-rule="evenodd" d="M128 232c57.44 0 104-46.56 104-104S185.44 24 128 24 24 70.56 24 128s46.56 104 104 104zm41.48-44.13a8 8 0 01-11.31 0l-30.4-30.41-30.41 30.4a8 8 0 01-11.32 0l-18.38-18.38a8 8 0 010-11.31l30.4-30.4-30.4-30.41a8 8 0 010-11.32l18.38-18.38a8 8 0 0111.32 0l30.4 30.4 30.4-30.4a8 8 0 0111.32 0l18.39 18.38a8 8 0 010 11.32l-30.41 30.4 30.4 30.4a8 8 0 010 11.32l-18.38 18.39z" clip-rule="evenodd"/></svg>
