<svg xmlns="http://www.w3.org/2000/svg" fill="none" viewBox="0 0 256 256"><path fill="#000" fill-rule="evenodd" d="M131.11 22.08a4 4 0 00-7.01 0l-17.53 31.99a4 4 0 01-5.21 1.7L68.37 40.17a4 4 0 00-5.67 4.13l4.62 36.18a4 4 0 01-3.22 4.44L28.26 91.7a4 4 0 00-2.17 6.67l25.01 26.55a4 4 0 010 5.49l-25 26.55a4 4 0 002.16 6.67l35.84 6.78a4 4 0 013.22 4.44l-4.62 36.18a4 4 0 005.67 4.13l32.98-15.58a4 4 0 015.22 1.7l17.53 31.98a4 4 0 007.01 0l17.53-31.99a4 4 0 015.21-1.7l32.98 15.58a4 4 0 005.68-4.12l-4.63-36.18a4 4 0 013.23-4.44l35.84-6.78a4 4 0 002.17-6.67l-25.01-26.55a4 4 0 010-5.49l25-26.55a4 4 0 00-2.16-6.67l-35.84-6.78a4 4 0 01-3.23-4.44l4.63-36.18a4 4 0 00-5.68-4.13l-32.98 15.58a4 4 0 01-5.21-1.7L131.1 22.09zm-46.3 142.8c-3.77 0-7.51-.26-11.2-.78a64 64 0 0090.42-90.43 80 80 0 01-79.21 91.21z" clip-rule="evenodd"/></svg>
