<svg xmlns="http://www.w3.org/2000/svg" fill="none" viewBox="0 0 256 256"><rect width="256" height="256" fill="#000" rx="64"/><path fill="#fff" d="M193.4 128.53c0 15.1-2.4 28.18-7.21 39.27-4.74 11-11.41 19.76-20.02 26.25l27.35 21.32-17.94 16.2-33.9-26.8a68.68 68.68 0 01-14.34 1.42c-12.83 0-24.31-3.14-34.45-9.4-10.06-6.35-17.86-15.36-23.4-27.02-5.47-11.67-8.25-25.12-8.32-40.36v-8.97c0-15.53 2.74-29.24 8.2-41.13 5.55-11.88 13.31-20.96 23.3-27.23 10.06-6.35 21.55-9.52 34.45-9.52 13.13 0 24.69 3.14 34.68 9.4 10.06 6.2 17.82 15.18 23.3 26.91 5.46 11.67 8.23 25.27 8.3 40.8v8.86zm-27.78-8.31c0-17.94-3.35-31.54-10.06-40.8-6.7-9.26-16.19-13.89-28.44-13.89-11.88 0-21.21 4.7-28 14.11-6.7 9.33-10.13 22.53-10.28 39.6v9.3c0 17.2 3.36 30.65 10.07 40.35 6.78 9.7 16.26 14.55 28.43 14.55 12.33 0 21.77-4.67 28.33-14 6.64-9.34 9.96-22.97 9.96-40.9v-8.32z"/></svg>
